<svg xmlns="http://www.w3.org/2000/svg" width="180" height="22" viewBox="0 0 180 22" fill="none"><g clip-path="url(#clip0_10658_6664)"><path d="M38.6591 12.2911C35.869 11.6357 34.4596 10.1821 34.4596 7.87371C34.4596 5.33708 36.5453 3.71289 39.5049 3.71289C41.506 3.71289 43.2254 4.48222 44.719 6.0501L42.6613 8.27298C41.8155 7.10438 40.7448 6.5061 39.4199 6.5061C38.2642 6.5061 37.5314 7.10438 37.5314 7.81697C37.5314 8.4724 37.9824 8.90004 38.8843 9.12784L41.0546 9.64101C43.8731 10.2964 45.2822 11.75 45.2822 14.0012C45.2822 16.5379 43.3091 18.3331 39.8143 18.3331C37.4188 18.3331 35.5022 17.4211 34.0928 15.6259L36.122 13.5169C37.1365 14.8561 38.461 15.5403 40.0677 15.5403C41.5617 15.5403 42.1815 14.9133 42.1815 14.1151C42.1815 13.5169 41.7585 13.0892 40.4902 12.7471L38.6582 12.2911H38.6591Z" fill="white"></path><path d="M55.7622 18.019V9.66853C55.7622 7.81612 54.8322 6.64752 53.2255 6.64752C51.3936 6.64752 50.379 7.98676 50.379 10.0674V18.0185H47.166V4.05458H50.3229V5.28034C51.1967 4.22606 52.4086 3.71289 53.9022 3.71289C55.6215 3.71289 56.8899 4.31116 57.7637 5.53693C58.8349 4.31116 60.2724 3.71289 62.0759 3.71289C65.7117 3.71289 67.5722 5.87862 67.5722 9.89717V18.0194H64.3592V9.66895C64.3592 7.81655 63.4292 6.64795 61.8225 6.64795C59.9906 6.64795 58.9479 7.98718 58.9479 10.0678V18.019H55.763H55.7622Z" fill="white"></path><path d="M75.3247 3.71289C73.0699 3.71289 70.9 4.71044 69.8569 6.61958L72.0272 8.67141C72.76 7.33217 73.8592 6.64795 75.2967 6.64795C76.8468 6.64795 78.0026 7.55996 78.0026 8.95636V9.41237H75.2125C71.8304 9.41237 69.4629 11.037 69.4629 14.0864C69.4629 15.3689 69.9139 16.4236 70.7873 17.1929C71.6893 17.9622 72.7885 18.3327 74.1129 18.3327C75.6911 18.3327 77.016 17.8767 78.0591 16.9363V18.0194H81.2159V8.98515C81.2159 5.5365 78.9045 3.71289 75.3252 3.71289H75.3247ZM78.0021 14.2862C77.1848 15.0843 76.0856 15.4832 74.7611 15.4832C73.4367 15.4832 72.6754 14.7994 72.6754 13.8586C72.6754 12.7471 73.6339 12.1201 75.1275 12.1201H78.0021V14.2858V14.2862Z" fill="white"></path><path d="M151.156 3.71289C148.901 3.71289 146.731 4.71044 145.688 6.61958L147.858 8.67141C148.591 7.33217 149.69 6.64795 151.128 6.64795C152.678 6.64795 153.834 7.55996 153.834 8.95636V9.41237H151.044C147.661 9.41237 145.294 11.037 145.294 14.0864C145.294 15.3689 145.745 16.4236 146.618 17.1929C147.52 17.9622 148.62 18.3327 149.944 18.3327C151.522 18.3327 152.847 17.8767 153.89 16.9363V18.0194H157.047V8.98515C157.047 5.5365 154.736 3.71289 151.156 3.71289H151.156ZM153.833 14.2862C153.016 15.0843 151.917 15.4832 150.592 15.4832C149.268 15.4832 148.506 14.7994 148.506 13.8586C148.506 12.7471 149.465 12.1201 150.959 12.1201H153.833V14.2858V14.2862Z" fill="white"></path><path d="M86.9512 6.95756V18.0195H83.7383V4.05469H91.3211V6.95756H86.9516H86.9512Z" fill="white"></path><path d="M92.7382 13.0893V6.96173H90.709V4.05462H92.7382V0.150391H95.923V4.05505H99.2206V6.96216H95.923V12.6049C95.923 14.6284 96.374 15.1415 98.1779 15.1415L99.2206 15.0844V17.9911C98.7977 18.0194 98.234 18.0482 97.5013 18.0482C93.9219 18.0482 92.7382 16.709 92.7382 13.0893Z" fill="white"></path><path d="M105.413 12.2911C102.623 11.6357 101.213 10.1821 101.213 7.87371C101.213 5.33708 103.299 3.71289 106.258 3.71289C108.26 3.71289 109.979 4.48222 111.472 6.0501L109.415 8.27298C108.569 7.10438 107.498 6.5061 106.173 6.5061C105.018 6.5061 104.285 7.10438 104.285 7.81697C104.285 8.4724 104.736 8.90004 105.638 9.12784L107.809 9.64101C110.627 10.2964 112.036 11.75 112.036 14.0012C112.036 16.5379 110.063 18.3331 106.568 18.3331C104.172 18.3331 102.256 17.4211 100.847 15.6259L102.876 13.5169C103.89 14.8561 105.215 15.5403 106.822 15.5403C108.316 15.5403 108.935 14.9133 108.935 14.1151C108.935 13.5169 108.512 13.0892 107.244 12.7471L105.412 12.2911H105.413Z" fill="white"></path><path d="M114.482 13.0893V6.96173H112.453V4.05462H114.482V0.150391H117.667V4.05505H120.965V6.96216H117.667V12.6049C117.667 14.6284 118.118 15.1415 119.922 15.1415L120.965 15.0844V17.9911C120.542 18.0194 119.979 18.0482 119.246 18.0482C115.666 18.0482 114.483 16.709 114.483 13.0893H114.482Z" fill="white"></path><path d="M126.323 7.13243V18.0191H123.11V4.05469H130.777V7.13285H126.323V7.13243Z" fill="white"></path><path d="M143.94 12.0062H134.498C134.638 14.0868 136.076 15.3976 138.134 15.3976C139.627 15.3976 140.811 14.7422 141.685 13.4313L143.855 15.4832C142.39 17.3927 140.473 18.3331 138.134 18.3331C136.076 18.3331 134.385 17.6773 133.117 16.338C131.848 14.9988 131.2 13.2603 131.2 11.1225C131.2 8.98473 131.792 7.27501 132.948 5.85025C134.132 4.42548 135.71 3.71289 137.655 3.71289C142.136 3.71289 143.968 7.33217 143.968 10.8659L143.94 12.0057L143.94 12.0062ZM134.667 9.41279H140.558C140.53 7.95924 139.628 6.67674 137.683 6.67674C135.992 6.67674 134.977 7.90208 134.667 9.41279H134.667Z" fill="white"></path><path d="M168.191 18.019V9.66853C168.191 7.81612 167.261 6.64752 165.654 6.64752C163.822 6.64752 162.808 7.98676 162.808 10.0674V18.0185H159.595V4.05458H162.752V5.28034C163.625 4.22606 164.837 3.71289 166.331 3.71289C168.05 3.71289 169.319 4.31116 170.192 5.53693C171.264 4.31116 172.701 3.71289 174.505 3.71289C178.14 3.71289 180.001 5.87862 180.001 9.89717V18.0194H176.788V9.66895C176.788 7.81655 175.858 6.64795 174.251 6.64795C172.419 6.64795 171.377 7.98718 171.377 10.0678V18.019H168.192H168.191Z" fill="white"></path><path d="M5.5141 11.0371H10.8973V5.59375H5.5141C2.54109 5.59375 0.130859 8.03088 0.130859 11.0371V16.4804H5.5141V11.0371Z" fill="white"></path><path d="M16.2797 5.59371H21.663V0.150391H16.2797C13.3067 0.150391 10.8965 2.58752 10.8965 5.59371H16.2797Z" fill="white"></path><path d="M21.6645 5.59375V11.0371H16.2812V16.4804H21.6645C24.6375 16.4804 27.0477 14.0433 27.0477 11.0371V5.59375H21.6645Z" fill="white"></path><path d="M10.8989 16.4805H5.51562V21.9238H10.8989C13.8719 21.9238 16.2821 19.4867 16.2821 16.4805H10.8989Z" fill="white"></path></g><defs><clipPath id="clip0_10658_6664"><rect width="179.87" height="21.7737" fill="white" transform="translate(0.130859 0.150391)"></rect></clipPath></defs></svg>